<?xml version="1.0" standalone="no"?>
<!DOCTYPE svg PUBLIC "-//W3C//DTD SVG 20010904//EN"
 "http://www.w3.org/TR/2001/REC-SVG-20010904/DTD/svg10.dtd">
<svg version="1.0" xmlns="http://www.w3.org/2000/svg"
 width="95.000000pt" height="95.000000pt" viewBox="0 0 95.000000 95.000000"
 preserveAspectRatio="xMidYMid meet">
<metadata>
Created by potrace 1.14, written by Peter Selinger 2001-2017
</metadata>
<g transform="translate(0.000000,95.000000) scale(0.100000,-0.100000)"
fill="#000000" stroke="none">
<path d="M137 873 c-4 -7 -9 -29 -23 -102 -1 -8 -10 -46 -18 -85 -112 -525
-110 -499 -48 -568 20 -22 38 -36 39 -32 4 11 113 511 119 544 3 14 10 50 17
80 l12 55 130 0 130 0 22 -100 c12 -55 22 -105 22 -112 1 -8 -20 -13 -56 -15
l-57 -3 -11 -56 -12 -56 141 1 c78 1 140 4 140 9 -1 4 -5 24 -8 45 -11 59 -66
323 -77 365 l-10 37 -224 0 c-123 0 -226 -3 -228 -7z"/>
<path d="M654 863 c3 -10 10 -38 15 -63 5 -25 25 -121 46 -215 20 -93 39 -180
41 -192 2 -12 16 -75 29 -140 14 -65 28 -130 32 -145 5 -27 8 -28 64 -28 33 0
59 4 59 9 0 4 -27 136 -61 292 -33 156 -65 309 -71 339 -5 30 -17 67 -26 82
-15 26 -65 59 -110 73 -20 6 -23 4 -18 -12z"/>
<path d="M280 705 c0 -3 -29 -143 -65 -310 -36 -168 -65 -308 -65 -310 0 -3
137 -5 305 -5 168 0 305 2 305 5 0 5 -44 216 -55 263 -5 22 -8 22 -159 22
l-154 0 -11 -44 c-19 -76 -24 -72 106 -72 l117 1 7 -28 7 -27 -159 0 c-132 0
-159 2 -159 14 0 12 51 256 75 361 3 17 12 20 50 19 51 -1 52 1 34 72 l-11 44
-84 0 c-46 0 -84 -2 -84 -5z"/>
</g>
</svg>
