<svg width="146" height="40" viewBox="0 0 146 40" fill="none" xmlns="http://www.w3.org/2000/svg">
<path d="M38.0925 39.9968L35.0085 25.5826H19.5372L18.3375 31.2877H30.1905L30.847 34.0313H14.7245L18.9161 14.3035H23.6775L22.5062 8.53369H14.1424L7.38867 39.9968H38.0925Z" fill="#016B45"/>
<path d="M32.5781 0.0522461L41.1401 39.9998H47.1612L39.9864 6.00583C39.0098 1.45639 34.0255 0.295631 32.5781 0.0522461Z" fill="#016B45"/>
<path d="M29.5981 0.000488281H6.8599L0.161067 31.4874L0.139834 31.6423C-0.792624 36.2292 3.19907 39.1328 4.40402 39.8919L11.7646 5.77026H24.7801L27.1847 17.0698H21.3917L20.1638 22.8396H34.4285L29.5981 0.000488281Z" fill="#016B45"/>
<path d="M85.9333 0.00189109H92.4003C92.4533 0.00189109 92.9311 -0.0151288 93.5291 0.0529511C95.164 0.236767 97.1687 0.944798 97.9932 4.5258L102.604 26.7216H97.6641L92.9275 4.06626H90.0576L85.3229 26.7199H80.3828L85.9333 0.00189109Z" fill="#016B45"/>
<path d="M74.0372 26.7198H78.9773L73.4268 0.00189109H66.9597C66.9066 0.00189109 66.4289 -0.0151288 65.8308 0.052951C64.1959 0.236767 62.1912 0.944797 61.3667 4.5258L56.7593 26.7198H61.6994L63.4351 18.4175H72.305L74.0372 26.7198ZM64.334 14.1097L66.4324 4.06626H69.3024L71.4008 14.1097H64.334Z" fill="#016B45"/>
<path d="M121.456 12.9221C122.353 12.3604 123.036 11.6745 123.489 10.8797C124.02 9.95208 124.289 8.67218 124.289 7.07911C124.289 4.63674 123.569 2.82241 122.148 1.69059C120.743 0.570671 118.613 0.00390625 115.815 0.00390625H105.344V26.7219H116.129C121.985 26.7219 124.954 24.1348 124.954 19.0339C124.956 16.0571 123.779 14.0028 121.456 12.9221ZM110.27 11.1554V4.22486H115.582C118.075 4.22486 119.287 5.32095 119.287 7.57439C119.287 9.98272 118.126 11.1537 115.738 11.1537H110.27V11.1554ZM119.913 18.8808C119.913 20.2151 119.586 21.158 118.938 21.6857C118.278 22.2252 117.254 22.4975 115.895 22.4975H110.27V15.3015H115.815C117.001 15.3015 117.999 15.5738 118.781 16.1082C119.533 16.6239 119.913 17.5566 119.913 18.8808Z" fill="#016B45"/>
<path d="M132.665 22.4209V15.3389H142.347V11.1162H132.665V4.26401H144.596L144.451 3.88957C143.262 0.817461 141.239 0.138364 140.139 0.00560812L127.739 0.00390625V26.7219H144.695V22.4226H132.665V22.4209Z" fill="#016B45"/>
<path d="M59.325 39.8251V32.9473H56.7134V31.327H64.1554V32.9473H61.5438V39.8251H59.325Z" fill="#016B45"/>
<path d="M72.5984 34.0088C72.5984 34.4053 72.5329 34.7815 72.402 35.1389C72.2711 35.4963 72.0835 35.7959 71.8376 36.0359C71.6872 36.1839 71.5226 36.3218 71.3421 36.446C71.1617 36.5703 70.9635 36.6775 70.7458 36.766C70.5282 36.8528 70.2911 36.9226 70.0363 36.972C69.7815 37.0213 69.4949 37.0468 69.1782 37.0468H68.0157V39.8262H65.7969V31.3264H69.2277C69.7373 31.3264 70.1779 31.3707 70.5477 31.4609C70.9175 31.5511 71.2537 31.6923 71.5545 31.8864C71.8871 32.0991 72.1437 32.3834 72.3259 32.7391C72.5082 33.0948 72.5984 33.5186 72.5984 34.0088ZM70.3194 34.0615C70.3194 33.8215 70.2593 33.6156 70.1407 33.442C70.0222 33.2684 69.8789 33.1493 69.7143 33.0846C69.5037 32.9978 69.3038 32.9467 69.1127 32.9331C68.9216 32.9195 68.6615 32.9127 68.3324 32.9127H68.0175V35.4589H68.1714C68.382 35.4589 68.5784 35.4572 68.7641 35.4538C68.9499 35.4504 69.1127 35.4367 69.2507 35.4146C69.3693 35.3959 69.4949 35.3585 69.6276 35.304C69.7603 35.2495 69.8629 35.1866 69.9337 35.1185C70.0841 34.9772 70.1867 34.8308 70.2398 34.6794C70.2929 34.5245 70.3194 34.3202 70.3194 34.0615Z" fill="#016B45"/>
<path d="M73.5664 39.8262L76.5514 31.3264H78.9719L81.9569 39.8262H79.6726L79.1205 38.0902H76.3426L75.7905 39.8262H73.5664ZM78.634 36.5499L77.7316 33.7467L76.8292 36.5499H78.634Z" fill="#016B45"/>
<path d="M91.0239 39.8262H88.8051V36.058H85.7847V39.8262H83.5659V31.3264H85.7847V34.4377H88.8051V31.3264H91.0239V39.8262Z" fill="#016B45"/>
<path d="M97.3911 39.9894C96.0658 39.9894 95.013 39.6047 94.2345 38.8337C93.456 38.0627 93.0649 36.9802 93.0649 35.5829C93.0649 34.2349 93.456 33.161 94.2363 32.361C95.0183 31.5594 96.0711 31.1594 97.3964 31.1594C97.7485 31.1594 98.0652 31.1781 98.3466 31.2173C98.6279 31.2547 98.8969 31.3092 99.1534 31.3773C99.3551 31.4351 99.5745 31.5117 99.8116 31.6105C100.049 31.7092 100.242 31.7943 100.387 31.8675V33.8945H100.162C100.056 33.8026 99.9213 33.6937 99.7585 33.566C99.5958 33.4384 99.4117 33.3141 99.2065 33.1916C99.0012 33.0691 98.7748 32.9652 98.527 32.8801C98.2793 32.795 98.021 32.7508 97.752 32.7508C97.4318 32.7508 97.1381 32.8001 96.8709 32.8972C96.6037 32.9942 96.3489 33.1627 96.1083 33.4027C95.8871 33.6188 95.7049 33.9133 95.5651 34.2809C95.4253 34.6502 95.3545 35.0859 95.3545 35.588C95.3545 36.1173 95.4271 36.5616 95.5739 36.9207C95.7208 37.2798 95.9119 37.5708 96.149 37.7904C96.379 38.0031 96.6338 38.158 96.9169 38.2533C97.2 38.3486 97.4813 38.3963 97.7627 38.3963C98.0546 38.3963 98.3342 38.3504 98.5996 38.2567C98.865 38.1631 99.0879 38.0593 99.2702 37.9453C99.4684 37.8278 99.6418 37.707 99.7922 37.5862C99.9426 37.4636 100.073 37.3564 100.183 37.2611H100.385V39.2592C100.222 39.3324 100.035 39.4141 99.8205 39.5077C99.6064 39.6013 99.387 39.6796 99.1623 39.7443C98.8845 39.8243 98.6261 39.8855 98.3855 39.9264C98.1466 39.9689 97.814 39.9894 97.3911 39.9894Z" fill="#016B45"/>
<path d="M110.214 39.8277H107.567L105.199 36.3965H104.642V39.8277H102.423V31.3279H104.642V34.7932C104.991 34.7779 105.251 34.7047 105.422 34.5702C105.594 34.4375 105.799 34.1447 106.036 33.6903C106.104 33.5575 106.181 33.3993 106.27 33.2171C106.358 33.035 106.436 32.875 106.505 32.7372C106.762 32.2232 107.075 31.8572 107.447 31.6377C107.818 31.4181 108.305 31.3092 108.91 31.3092C109.108 31.3092 109.273 31.3126 109.402 31.3177C109.533 31.3228 109.633 31.3262 109.704 31.3262V33.1474H109.195C108.942 33.1474 108.72 33.2222 108.533 33.3737C108.345 33.5235 108.154 33.8231 107.96 34.2724C107.806 34.6298 107.661 34.9004 107.523 35.0859C107.386 35.2698 107.259 35.3957 107.14 35.4604L110.214 39.8277Z" fill="#016B45"/>
<path d="M110.71 39.8262L113.695 31.3264H116.116L119.101 39.8262H116.817L116.264 38.0902H113.487L112.935 39.8262H110.71ZM115.778 36.5499L114.876 33.7467L113.973 36.5499H115.778Z" fill="#016B45"/>
<path d="M127.512 34.0088C127.512 34.4053 127.446 34.7815 127.315 35.1389C127.185 35.4963 126.997 35.7959 126.751 36.0359C126.601 36.1839 126.436 36.3218 126.256 36.446C126.075 36.5703 125.877 36.6775 125.659 36.766C125.442 36.8528 125.205 36.9226 124.95 36.972C124.695 37.0213 124.408 37.0468 124.092 37.0468H122.929V39.8262H120.71V31.3264H124.141C124.651 31.3264 125.091 31.3707 125.461 31.4609C125.831 31.5511 126.167 31.6923 126.468 31.8864C126.801 32.0991 127.057 32.3834 127.239 32.7391C127.42 33.0948 127.512 33.5186 127.512 34.0088ZM125.233 34.0615C125.233 33.8215 125.173 33.6156 125.054 33.442C124.936 33.2684 124.792 33.1493 124.628 33.0846C124.419 32.9978 124.217 32.9467 124.026 32.9331C123.835 32.9195 123.575 32.9127 123.246 32.9127H122.931V35.4589H123.085C123.294 35.4589 123.492 35.4572 123.678 35.4538C123.863 35.4504 124.026 35.4367 124.164 35.4146C124.283 35.3959 124.408 35.3585 124.541 35.304C124.674 35.2495 124.776 35.1866 124.847 35.1185C124.998 34.9772 125.1 34.8308 125.153 34.6794C125.206 34.5245 125.233 34.3202 125.233 34.0615Z" fill="#016B45"/>
<path d="M135.385 32.9484H131.646V39.8262H129.427V31.3264H135.385V32.9484Z" fill="#016B45"/>
<path d="M145.074 35.5736C145.074 36.9471 144.692 38.0279 143.929 38.8159C143.167 39.6039 142.119 39.9971 140.791 39.9971C139.456 39.9971 138.411 39.5988 137.652 38.8006C136.893 38.0041 136.512 36.9267 136.512 35.5719C136.512 34.2052 136.893 33.1261 137.652 32.333C138.411 31.5399 139.458 31.1433 140.791 31.1433C142.119 31.1433 143.167 31.5382 143.929 32.3279C144.692 33.1176 145.074 34.2001 145.074 35.5736ZM142.785 35.5668C142.785 35.0613 142.73 34.629 142.622 34.2733C142.512 33.9176 142.367 33.6248 142.187 33.3968C141.997 33.1653 141.781 32.9985 141.543 32.8981C141.304 32.7977 141.054 32.7466 140.798 32.7466C140.525 32.7466 140.277 32.7925 140.056 32.8862C139.835 32.9798 139.621 33.1466 139.416 33.3848C139.234 33.6061 139.087 33.8988 138.973 34.2648C138.86 34.6307 138.804 35.0664 138.804 35.5719C138.804 36.0927 138.857 36.5267 138.965 36.8705C139.072 37.2143 139.218 37.5037 139.403 37.7351C139.593 37.9717 139.809 38.1402 140.051 38.2406C140.292 38.3411 140.541 38.3921 140.798 38.3921C141.06 38.3921 141.313 38.3376 141.557 38.2287C141.803 38.1198 142.013 37.9513 142.192 37.7232C142.381 37.4764 142.528 37.1871 142.631 36.8586C142.733 36.5318 142.785 36.0995 142.785 35.5668Z" fill="#016B45"/>
</svg>
