<svg width="101" height="33" viewBox="0 0 101 33" fill="none" xmlns="http://www.w3.org/2000/svg">
<path d="M26.5204 32.3225L24.3733 20.8646H13.6023L12.7671 25.3996H21.0191L21.4761 27.5805H10.2517L13.1699 11.8989H16.4847L15.6693 7.3125H9.84641L5.14453 32.3225H26.5204Z" fill="#016B45"/>
<path d="M22.6807 0.568359L28.6415 32.3226H32.8334L27.8383 5.30085C27.1584 1.68451 23.6883 0.761826 22.6807 0.568359Z" fill="#016B45"/>
<path d="M20.606 0.529297H4.77583L0.112134 25.5582L0.097352 25.6813C-0.551821 29.3274 2.22718 31.6355 3.06606 32.2389L8.19046 5.11567H17.2518L18.9258 14.0977H14.8928L14.0379 18.684H23.9689L20.606 0.529297Z" fill="#016B45"/>
<path d="M59.8271 0.530312H64.3295C64.3664 0.530312 64.699 0.516783 65.1154 0.570899C66.2536 0.717014 67.6492 1.27983 68.2233 4.12636L71.4334 21.7697H67.9941L64.6965 3.76107H62.6985L59.4022 21.7684H55.9629L59.8271 0.530312Z" fill="black"/>
<path d="M51.5464 21.7684H54.9856L51.1214 0.530312H46.6191C46.5821 0.530312 46.2495 0.516783 45.8332 0.570899C44.6949 0.717014 43.2993 1.27983 42.7253 4.12636L39.5176 21.7684H42.9568L44.1653 15.1688H50.3404L51.5464 21.7684ZM44.791 11.7446L46.252 3.76107H48.25L49.7109 11.7446H44.791Z" fill="black"/>
<path d="M84.5588 10.8004C85.1834 10.3539 85.6588 9.80867 85.9742 9.17686C86.3437 8.43952 86.531 7.42213 86.531 6.1558C86.531 4.21437 86.0296 2.77216 85.0405 1.87248C84.0624 0.982259 82.5793 0.531738 80.6317 0.531738H73.3418V21.7698H80.8498C84.9271 21.7698 86.9941 19.7134 86.9941 15.6587C86.9954 13.2924 86.1762 11.6595 84.5588 10.8004ZM76.7712 9.39603V3.88697H80.4691C82.2048 3.88697 83.0486 4.75824 83.0486 6.5495C83.0486 8.46387 82.2405 9.39468 80.5775 9.39468H76.7712V9.39603ZM83.4847 15.5369C83.4847 16.5976 83.2568 17.3471 82.8059 17.7665C82.3465 18.1954 81.6332 18.4119 80.6872 18.4119H76.7712V12.6917H80.6317C81.4571 12.6917 82.1518 12.9082 82.6963 13.333C83.2198 13.7429 83.4847 14.4843 83.4847 15.5369Z" fill="black"/>
<path d="M92.362 18.351V12.7215H99.1026V9.36491H92.362V3.91808H100.668L100.567 3.62044C99.7394 1.17843 98.3315 0.638618 97.5653 0.533091L88.9326 0.531738V21.7698H100.737V18.3523H92.362V18.351Z" fill="black"/>
<path d="M41.3026 32.1853V26.7182H39.4844V25.4302H44.6654V26.7182H42.8473V32.1853H41.3026Z" fill="#1B242D"/>
<path d="M50.5437 27.5619C50.5437 27.8771 50.4982 28.1761 50.407 28.4602C50.3158 28.7443 50.1853 28.9824 50.014 29.1732C49.9093 29.2909 49.7948 29.4005 49.6691 29.4993C49.5435 29.598 49.4055 29.6833 49.254 29.7536C49.1025 29.8226 48.9374 29.8781 48.76 29.9173C48.5827 29.9565 48.3831 29.9768 48.1626 29.9768H47.3533V32.1862H45.8086V25.4297H48.1971C48.5519 25.4297 48.8586 25.4649 49.116 25.5366C49.3735 25.6083 49.6075 25.7206 49.817 25.8748C50.0485 26.0439 50.2272 26.2698 50.354 26.5526C50.4809 26.8354 50.5437 27.1722 50.5437 27.5619ZM48.9571 27.6038C48.9571 27.4131 48.9153 27.2494 48.8327 27.1114C48.7502 26.9734 48.6504 26.8787 48.5359 26.8273C48.3893 26.7583 48.2501 26.7177 48.117 26.7068C47.984 26.696 47.8029 26.6906 47.5738 26.6906H47.3545V28.7146H47.4617C47.6083 28.7146 47.745 28.7132 47.8744 28.7105C48.0037 28.7078 48.117 28.697 48.2131 28.6794C48.2957 28.6645 48.3831 28.6347 48.4755 28.5915C48.5679 28.5482 48.6393 28.4981 48.6886 28.444C48.7933 28.3317 48.8648 28.2153 48.9017 28.0949C48.9387 27.9718 48.9571 27.8095 48.9571 27.6038Z" fill="#1B242D"/>
<path d="M51.2178 32.1862L53.2959 25.4297H54.981L57.0591 32.1862H55.4688L55.0845 30.8062H53.1505L52.7662 32.1862H51.2178ZM54.7457 29.5818L54.1175 27.3535L53.4893 29.5818H54.7457Z" fill="#1B242D"/>
<path d="M63.3709 32.1862H61.8262V29.1908H59.7234V32.1862H58.1787V25.4297H59.7234V27.9028H61.8262V25.4297H63.3709V32.1862Z" fill="#1B242D"/>
<path d="M67.8038 32.3129C66.8812 32.3129 66.1482 32.0071 65.6062 31.3942C65.0642 30.7814 64.792 29.9209 64.792 28.8102C64.792 27.7387 65.0642 26.885 65.6075 26.2491C66.1519 25.6119 66.8849 25.2939 67.8075 25.2939C68.0527 25.2939 68.2732 25.3088 68.469 25.3399C68.6649 25.3697 68.8521 25.413 69.0307 25.4671C69.1712 25.5131 69.3239 25.574 69.489 25.6525C69.654 25.7309 69.7883 25.7986 69.8893 25.8568V27.4681H69.7329C69.659 27.395 69.5653 27.3084 69.452 27.207C69.3387 27.1055 69.2106 27.0067 69.0677 26.9093C68.9248 26.8119 68.7671 26.7294 68.5947 26.6617C68.4222 26.5941 68.2424 26.5589 68.0551 26.5589C67.8322 26.5589 67.6277 26.5982 67.4417 26.6753C67.2557 26.7524 67.0783 26.8863 66.9107 27.0771C66.7568 27.2489 66.6299 27.483 66.5326 27.7752C66.4353 28.0688 66.386 28.4151 66.386 28.8142C66.386 29.235 66.4365 29.5881 66.5387 29.8736C66.641 30.159 66.774 30.3904 66.9391 30.5649C67.0992 30.734 67.2766 30.8571 67.4737 30.9329C67.6708 31.0086 67.8667 31.0465 68.0625 31.0465C68.2658 31.0465 68.4604 31.01 68.6452 30.9356C68.8299 30.8612 68.9851 30.7787 69.112 30.688C69.25 30.5947 69.3707 30.4986 69.4754 30.4025C69.5801 30.3051 69.6713 30.2199 69.7477 30.1441H69.8881V31.7325C69.7748 31.7906 69.6442 31.8556 69.4951 31.93C69.3461 32.0044 69.1933 32.0666 69.0369 32.118C68.8435 32.1816 68.6636 32.2303 68.4961 32.2628C68.3298 32.2966 68.0982 32.3129 67.8038 32.3129Z" fill="#1B242D"/>
<path d="M76.7314 32.1854H74.8886L73.2404 29.4579H72.8523V32.1854H71.3076V25.4289H72.8523V28.1835C73.095 28.1713 73.2761 28.1131 73.3956 28.0062C73.5151 27.9007 73.658 27.668 73.823 27.3068C73.8698 27.2013 73.924 27.0754 73.9856 26.9307C74.0472 26.7859 74.1014 26.6587 74.1495 26.5492C74.3281 26.1406 74.5461 25.8497 74.8048 25.6752C75.0635 25.5006 75.4022 25.4141 75.8235 25.4141C75.9615 25.4141 76.076 25.4168 76.166 25.4208C76.2571 25.4249 76.3273 25.4276 76.3766 25.4276V26.8752H76.0218C75.8457 26.8752 75.6917 26.9347 75.5611 27.0551C75.4306 27.1742 75.2975 27.4123 75.162 27.7695C75.0549 28.0536 74.9538 28.2687 74.8578 28.4162C74.7629 28.5623 74.6742 28.6624 74.5917 28.7138L76.7314 32.1854Z" fill="#1B242D"/>
<path d="M77.0771 32.1862L79.1552 25.4297H80.8404L82.9184 32.1862H81.3281L80.9438 30.8062H79.0099L78.6255 32.1862H77.0771ZM80.6051 29.5818L79.9768 27.3535L79.3486 29.5818H80.6051Z" fill="#1B242D"/>
<path d="M88.7732 27.5619C88.7732 27.8771 88.7276 28.1761 88.6365 28.4602C88.5453 28.7443 88.4148 28.9824 88.2435 29.1732C88.1388 29.2909 88.0243 29.4005 87.8986 29.4993C87.773 29.598 87.635 29.6833 87.4835 29.7536C87.332 29.8226 87.1669 29.8781 86.9895 29.9173C86.8122 29.9565 86.6126 29.9768 86.3921 29.9768H85.5828V32.1862H84.0381V25.4297H86.4266C86.7814 25.4297 87.0881 25.4649 87.3455 25.5366C87.603 25.6083 87.837 25.7206 88.0465 25.8748C88.278 26.0439 88.4566 26.2698 88.5835 26.5526C88.7092 26.8354 88.7732 27.1722 88.7732 27.5619ZM87.1866 27.6038C87.1866 27.4131 87.1448 27.2494 87.0622 27.1114C86.9797 26.9734 86.8799 26.8787 86.7653 26.8273C86.62 26.7583 86.4796 26.7177 86.3465 26.7068C86.2135 26.696 86.0324 26.6906 85.8033 26.6906H85.584V28.7146H85.6912C85.8366 28.7146 85.9745 28.7132 86.1039 28.7105C86.2332 28.7078 86.3465 28.697 86.4426 28.6794C86.5251 28.6645 86.6126 28.6347 86.705 28.5915C86.7974 28.5482 86.8688 28.4981 86.9181 28.444C87.0228 28.3317 87.0943 28.2153 87.1312 28.0949C87.1682 27.9718 87.1866 27.8095 87.1866 27.6038Z" fill="#1B242D"/>
<path d="M94.255 26.719H91.6521V32.1862H90.1074V25.4297H94.255V26.719Z" fill="#1B242D"/>
<path d="M101.001 28.8063C101.001 29.8981 100.735 30.7572 100.204 31.3836C99.6729 32.01 98.9437 32.3225 98.0186 32.3225C97.0898 32.3225 96.3618 32.0059 95.8333 31.3714C95.3049 30.7383 95.04 29.8819 95.04 28.8049C95.04 27.7186 95.3049 26.8608 95.8333 26.2304C96.3618 25.5999 97.091 25.2847 98.0186 25.2847C98.9437 25.2847 99.6729 25.5985 100.204 26.2263C100.735 26.854 101.001 27.7145 101.001 28.8063ZM99.4068 28.8009C99.4068 28.3991 99.3687 28.0554 99.2935 27.7727C99.2171 27.4899 99.1161 27.2572 98.9905 27.0759C98.8587 26.8919 98.7084 26.7593 98.5421 26.6795C98.3758 26.5997 98.2021 26.5591 98.0235 26.5591C97.8338 26.5591 97.6614 26.5956 97.5074 26.6701C97.3534 26.7445 97.2043 26.877 97.0615 27.0665C96.9346 27.2423 96.8323 27.475 96.7535 27.7659C96.6747 28.0568 96.6352 28.4031 96.6352 28.8049C96.6352 29.2189 96.6722 29.5639 96.7473 29.8372C96.8225 30.1105 96.9235 30.3405 97.0528 30.5245C97.1846 30.7126 97.3349 30.8465 97.5037 30.9263C97.6712 31.0061 97.8449 31.0467 98.0235 31.0467C98.2058 31.0467 98.382 31.0034 98.552 30.9168C98.7232 30.8303 98.8698 30.6963 98.9942 30.515C99.126 30.3189 99.2282 30.0889 99.2997 29.8278C99.3711 29.568 99.4068 29.2244 99.4068 28.8009Z" fill="#1B242D"/>
</svg>
